<svg width="24" height="24" viewBox="0 0 24 24" fill="none" xmlns="http://www.w3.org/2000/svg">
  <path
    d="M20.6884 3.00512C19.5055 1.72016 18.1029 0.721543 16.5197 0.036795C16.3541 -0.0343679 16.1613 -0.000734322 16.0284 0.124061C15.8963 0.249115 15.8492 0.441307 15.9083 0.614539C17.387 4.93574 16.2092 9.74287 12.9077 12.8613C9.60641 15.9799 4.78931 16.8341 0.636587 15.0387C0.470555 14.9672 0.277599 15.0009 0.145287 15.1259C0.0131023 15.251 -0.0339508 15.4432 0.025154 15.6164C0.589278 17.2641 1.47482 18.7507 2.65769 20.0354C5.08188 22.6683 8.37521 24 11.6773 24C14.6893 23.9997 17.7085 22.8914 20.08 20.6517C22.4879 18.3771 23.8773 15.289 23.9923 11.9561C24.1073 8.6231 22.9338 5.4444 20.6884 3.00512ZM23.0787 11.9237C22.9723 15.0096 21.6857 17.8686 19.4564 19.9742C14.8539 24.3208 7.61775 24.0653 3.32656 19.4035C2.4646 18.4675 1.77317 17.4159 1.26328 16.2673C3.8694 17.1368 6.65168 17.084 9.1778 16.1935C9.4341 17.2786 10.3922 19.4231 13.9603 19.4231C14.2127 19.4231 14.4175 19.2157 14.4175 18.96C14.4175 18.7043 14.2127 18.497 13.9603 18.497C10.8144 18.497 10.1675 16.6049 10.0342 15.8576C11.3008 15.301 12.4866 14.5253 13.5314 13.5385C16.8387 10.4145 18.173 5.72139 17.0745 1.33318C18.1701 1.92833 19.1577 2.70034 20.0196 3.63663C22.0987 5.89501 23.185 8.83788 23.0787 11.9237Z"
    fill="var(--primary-text)" />
  <path
    d="M17.6371 10.6139C17.4585 10.433 17.1692 10.433 16.9906 10.6139C16.812 10.7947 16.812 11.0877 16.9906 11.2686L19.2765 13.5839C19.3657 13.6742 19.4828 13.7196 19.5997 13.7196C19.7166 13.7196 19.8337 13.6744 19.9229 13.5839C20.1015 13.403 20.1015 13.11 19.9229 12.9291L17.6371 10.6139Z"
    fill="var(--primary-text)" />
  <path
    d="M17.9754 12.8424L17.061 12.3793C16.8342 12.2646 16.5604 12.3578 16.4476 12.5864C16.3346 12.8152 16.4261 13.0932 16.6521 13.2078L17.5664 13.6709C17.6321 13.7041 17.702 13.7197 17.7704 13.7197C17.9383 13.7197 18.0997 13.6261 18.1798 13.4637C18.2929 13.2349 18.2013 12.9568 17.9754 12.8424Z"
    fill="var(--primary-text)" />
</svg>
