<svg width="12" height="12" viewBox="0 0 12 12" fill="none" xmlns="http://www.w3.org/2000/svg">
  <path
    d="M5.40869 6.87806C4.86643 6.45259 4.30351 6.04377 3.66829 5.6886C3.47721 5.58131 3.24998 5.54061 3.09763 5.66825C2.95819 5.78479 2.96852 5.95128 3.12603 6.09002C3.41007 6.3379 3.69153 6.58948 4.01173 6.81332C4.52558 7.17219 5.07042 7.50887 5.60236 7.85664C5.61785 7.87514 5.63334 7.89179 5.64884 7.91029V7.91214C5.72888 8.00093 5.89673 8.02683 6.02067 7.96948L6.14462 7.91214C7.22656 7.41082 8.02187 6.67643 8.96437 6.06227C9.00827 6.03452 9.00827 5.94203 8.98245 5.89578C8.93339 5.80329 8.80291 5.80144 8.67 5.80144C8.22587 5.85139 7.83079 6.01602 7.48994 6.22691C7.08195 6.48034 6.67139 6.73007 6.27115 6.9909C6.30213 6.72452 6.32537 6.45814 6.32279 6.19176C6.31246 5.5961 6.26082 5.00045 6.22725 4.40479C6.5242 3.33742 6.35377 2.24415 6.41575 1.16383C6.41833 1.11573 6.32795 1.03988 6.26598 1.01584C6.13945 0.96959 6.03358 1.03064 5.95354 1.12128C5.68757 1.42281 5.57137 1.78908 5.54038 2.1609C5.4655 3.05809 5.35188 3.95527 5.4371 4.85616C5.42677 4.96715 5.41644 5.07999 5.40869 5.19098C5.37254 5.75334 5.35963 6.31755 5.40869 6.87806Z"
    fill="#254A58" stroke="#254A58" stroke-width="0.5" />
  <path
    d="M5.21282 10.0586C5.04553 10.0486 4.87824 10.0387 4.71094 10.0312C3.64876 9.98901 2.58657 9.97659 1.5297 10.0784C1.22963 10.1082 0.98002 10.2225 1.00126 10.446C1.02251 10.6522 1.23494 10.8037 1.54298 10.8261C2.09797 10.8683 2.65562 10.9155 3.21061 10.9105C4.1055 10.9006 4.99773 10.8509 5.89262 10.8186C7.49387 11.1043 9.13494 10.9403 10.7548 10.9999C10.8265 11.0024 10.9407 10.9155 10.9752 10.8559C11.0469 10.7342 10.9539 10.6323 10.8158 10.5553C10.3644 10.2995 9.81474 10.1877 9.25444 10.1579C7.91343 10.0884 6.56711 9.97907 5.21282 10.0586Z"
    fill="#254A58" stroke="#254A58" stroke-width="0.5" />
</svg>
