<svg width="24" height="32" viewBox="0 0 24 32" fill="none" xmlns="http://www.w3.org/2000/svg">
  <path
    d="M17.5415 11.9747H10.942V0H17.5415C21.103 0 24 2.68533 24 5.98667C24 9.288 21.103 11.9747 17.5415 11.9747V11.9747ZM13.058 10.0133H17.5415C19.9365 10.0133 21.8841 8.20667 21.8841 5.988C21.8841 3.76933 19.935 1.96267 17.5415 1.96267H13.058V10.0133V10.0133ZM13.058 11.9747H6.45993C2.89841 11.9747 0.00143831 9.28933 0.00143831 5.988C0.00143831 2.68667 2.89841 0 6.45993 0H13.0594V11.9747H13.058ZM6.45993 1.96133C4.06497 1.96133 2.11735 3.768 2.11735 5.98667C2.11735 8.20533 4.06497 10.0133 6.45993 10.0133H10.9435V1.96133H6.45993ZM13.058 21.9867H6.45993C2.89841 21.9867 0.00143831 19.3013 0.00143831 16C0.00143831 12.6987 2.89841 10.0133 6.45993 10.0133H13.0594V21.9867H13.058ZM6.45993 11.9747C4.06497 11.9747 2.11735 13.7813 2.11735 16C2.11735 18.2187 4.06641 20.0253 6.45993 20.0253H10.9435V11.9747H6.45993ZM6.49446 32C2.91423 32 0 29.3147 0 26.0133C0 22.712 2.89697 20.0267 6.4585 20.0267H13.058V25.948C13.058 29.2853 10.1135 32 6.49446 32V32ZM6.45993 21.9867C5.30868 21.9881 4.20501 22.4126 3.39095 23.1672C2.57688 23.9218 2.11887 24.9449 2.11735 26.012C2.11735 28.232 4.08079 30.0373 6.4959 30.0373C8.9484 30.0373 10.9449 28.2027 10.9449 25.9467V21.9867H6.45993V21.9867ZM17.5415 21.9867H17.4005C13.839 21.9867 10.942 19.3013 10.942 16C10.942 12.6987 13.839 10.0133 17.4005 10.0133H17.5415C21.103 10.0133 24 12.6987 24 16C24 19.3013 21.103 21.9867 17.5415 21.9867V21.9867ZM17.402 11.9747C15.007 11.9747 13.0594 13.7813 13.0594 16C13.0594 18.2187 15.0085 20.0253 17.402 20.0253H17.5429C19.9379 20.0253 21.8855 18.2187 21.8855 16C21.8855 13.7813 19.9365 11.9747 17.5429 11.9747H17.402V11.9747Z"
    fill="#254A58" />
</svg>
