<svg width="147" height="108" viewBox="0 0 147 108" fill="none" xmlns="http://www.w3.org/2000/svg">
  <path
    d="M95.5337 52.6277C104.125 52.6277 111.14 59.9409 111.14 68.9656C111.14 77.9903 104.154 85.3035 95.5337 85.3035C86.9428 85.3035 79.9274 77.9903 79.9274 68.9656C79.9274 59.9409 86.9428 52.6277 95.5337 52.6277ZM95.5337 77.648C100.112 77.648 103.857 73.758 103.857 68.9345C103.857 64.1109 100.141 60.2209 95.5337 60.2209C90.9558 60.2209 87.2103 64.1109 87.2103 68.9345C87.2103 73.758 90.9558 77.648 95.5337 77.648Z"
    fill="var(--primary-text)" />
  <path
    d="M36.1702 68.9345C36.1702 59.9409 43.1559 52.5966 51.7765 52.5966C60.3675 52.5966 67.3829 59.9097 67.3829 68.9345C67.3829 77.9592 60.3972 85.2723 51.7765 85.2723C43.1559 85.2723 36.1702 77.9281 36.1702 68.9345ZM51.7765 77.648C56.3544 77.648 60.0999 73.758 60.0999 68.9345C60.0999 64.1109 56.3841 60.2209 51.7765 60.2209C47.1987 60.2209 43.4532 64.1109 43.4532 68.9345C43.4532 73.758 47.169 77.648 51.7765 77.648Z"
    fill="var(--primary-text)" />
  <path
    d="M10.6947 28.3854C13.1918 12.8255 25.4687 1.31123 40.5994 0.346517L41.2237 0.222038C41.4318 0.190918 41.6399 0.159799 41.8479 0.159799L104.719 0.159794C120.563 0.159792 133.97 12.0164 136.586 28.2921L146.187 82.1604C146.485 83.623 146.633 85.0856 146.633 86.5483C146.633 98.3115 137.507 107.865 126.271 107.865C119.493 107.865 113.161 104.349 109.446 98.5605L104.808 91.8386C103.619 90.127 104.006 87.7619 105.641 86.5171C107.276 85.2724 109.535 85.6769 110.724 87.3885L115.421 94.2037C117.858 98.0003 121.931 100.272 126.271 100.272C133.494 100.272 139.35 94.1104 139.35 86.5794C139.35 85.6458 139.261 84.6811 139.053 83.6541L129.451 29.6613C127.43 16.9956 117.026 7.81525 104.749 7.81526L42.1452 7.81526L41.6399 7.90862C41.4912 7.93974 41.3723 7.93974 41.2237 7.97086C29.6304 8.62438 19.8207 17.7736 17.8885 29.7236L8.25719 83.7164C8.07883 84.65 7.98965 85.6147 7.98965 86.5483C7.98965 94.1104 13.8755 100.241 21.0692 100.241C25.439 100.241 29.4818 97.9692 32.0085 94.0793L37.0026 86.8595C38.1916 85.1479 40.4508 84.7745 42.0858 85.9881C43.7207 87.2329 44.0774 89.598 42.9181 91.3096L38.0133 98.436C34.2083 104.318 27.9063 107.834 21.1287 107.834C9.89213 107.834 0.766146 98.2804 0.766145 86.5172C0.766145 85.0545 0.914784 83.5608 1.18232 82.1915L10.6947 28.3854Z"
    fill="var(--primary-text)" />
  <path
    d="M54.7789 36.1031C52.0536 36.1031 49.8444 33.7903 49.8444 30.9372C49.8444 28.0842 52.0536 25.7714 54.7789 25.7714C57.5042 25.7714 59.7135 28.0842 59.7135 30.9372C59.7135 33.7903 57.5042 36.1031 54.7789 36.1031Z"
    fill="var(--primary-text)" />
  <path
    d="M34.5947 36.1031C31.8694 36.1031 29.6601 33.7903 29.6601 30.9372C29.6601 28.0842 31.8694 25.7714 34.5947 25.7714C37.32 25.7714 39.5293 28.0842 39.5293 30.9372C39.5293 33.7903 37.32 36.1031 34.5947 36.1031Z"
    fill="var(--primary-text)" />
  <path
    d="M102.282 15.6263C104.303 15.6263 105.938 17.3379 105.938 19.454L105.938 26.3315L112.507 26.3315C114.529 26.3315 116.164 28.0431 116.164 30.1592C116.164 32.2754 114.529 33.987 112.507 33.987L105.938 33.987L105.938 40.8644C105.938 42.9806 104.303 44.6922 102.282 44.6922C100.26 44.6922 98.6253 42.9806 98.6253 40.8644L98.6253 33.987L92.0558 33.987C90.0344 33.987 88.3994 32.2754 88.3994 30.1592C88.3994 28.0431 90.0344 26.3315 92.0558 26.3315L98.6253 26.3315L98.6253 19.454C98.6253 17.3379 100.26 15.6263 102.282 15.6263Z"
    fill="var(--primary-text)" />
  <path
    d="M44.7017 46.6527C41.9764 46.6527 39.7671 44.3399 39.7671 41.4869C39.7671 38.6338 41.9764 36.321 44.7017 36.321C47.4269 36.321 49.6362 38.6338 49.6362 41.4869C49.6362 44.3399 47.4269 46.6527 44.7017 46.6527Z"
    fill="var(--primary-text)" />
  <path
    d="M44.7017 25.5224C41.9764 25.5224 39.7671 23.2096 39.7671 20.3565C39.7671 17.5035 41.9764 15.1906 44.7017 15.1906C47.4269 15.1906 49.6362 17.5035 49.6362 20.3565C49.6362 23.2096 47.4269 25.5224 44.7017 25.5224Z"
    fill="var(--primary-text)" />
</svg>
