<svg width="16" height="16" viewBox="0 0 16 16" fill="none" xmlns="http://www.w3.org/2000/svg">
  <g clip-path="url(#clip0_111_82)">
    <path
      d="M7.87826 0C3.52815 0 0 3.52749 0 7.87826C0 11.3591 2.25712 14.3122 5.38807 15.3541C5.78133 15.4269 5.9087 15.1827 5.9087 14.9753V13.5086C3.71723 13.9852 3.26094 12.579 3.26094 12.579C2.90248 11.6684 2.3858 11.4261 2.3858 11.4261C1.67085 10.937 2.44029 10.9475 2.44029 10.9475C3.2314 11.0026 3.64763 11.7596 3.64763 11.7596C4.35011 12.9637 5.49049 12.6157 5.94021 12.4142C6.01046 11.9054 6.21463 11.5574 6.44048 11.3611C4.69085 11.1609 2.85127 10.4853 2.85127 7.46728C2.85127 6.60658 3.15918 5.9041 3.66273 5.35262C3.58133 5.1537 3.3115 4.35208 3.73955 3.26751C3.73955 3.26751 4.40132 3.05611 5.90673 4.07503C6.54934 3.90012 7.21227 3.81093 7.87826 3.8098C8.54791 3.81308 9.22216 3.9004 9.85176 4.07503C11.3559 3.05611 12.0163 3.26751 12.0163 3.26751C12.445 4.35274 12.1752 5.15435 12.0938 5.35262C12.5993 5.9041 12.9046 6.60723 12.9046 7.46728C12.9046 10.4932 11.0617 11.1596 9.30751 11.3545C9.58981 11.5988 9.84783 12.078 9.84783 12.8133V14.9753C9.84783 15.1847 9.97388 15.4309 10.3737 15.3534C13.502 14.3102 15.7565 11.3578 15.7565 7.87826C15.7565 3.52749 12.229 0 7.87826 0Z"
      fill="#254A58" />
  </g>
</svg>
