<svg width="18" height="18" viewBox="0 0 18 18" fill="none" xmlns="http://www.w3.org/2000/svg">
<path d="M12.4874 17V14.7071C12.5182 14.3261 12.4653 13.9431 12.3323 13.5836C12.1993 13.2241 11.9893 12.8962 11.7161 12.6219C14.2925 12.3422 17.0002 11.3915 17.0002 7.02935C16.9999 5.91391 16.5593 4.84125 15.7694 4.03337C16.1434 3.05749 16.117 1.9788 15.6956 1.02141C15.6956 1.02141 14.7274 0.741781 12.4874 2.20382C10.6068 1.70754 8.62444 1.70754 6.74382 2.20382C4.50383 0.741781 3.53563 1.02141 3.53563 1.02141C3.11419 1.9788 3.08775 3.05749 3.46178 4.03337C2.66599 4.84724 2.22488 5.9296 2.23102 7.05332C2.23102 11.3835 4.93869 12.3343 7.51509 12.6458C7.24514 12.9175 7.03696 13.2414 6.90407 13.5965C6.77118 13.9516 6.71658 14.3301 6.74382 14.7071V17" stroke="#254A58" stroke-width="2" stroke-linecap="round" stroke-linejoin="round"/>
<path d="M6.74356 15.402C4.28204 16.1796 2.23076 15.402 1 13.0052" stroke="#254A58" stroke-width="2" stroke-linecap="round" stroke-linejoin="round"/>
</svg>
