<svg width="169" height="148" viewBox="0 0 169 148" fill="none" xmlns="http://www.w3.org/2000/svg">
  <path fill-rule="evenodd" clip-rule="evenodd"
    d="M165.263 100.006L165.181 88.1022C166.729 87.1901 167.775 85.518 167.762 83.5902C167.442 37.4223 129.757 0.197877 83.591 0.441959C37.4253 0.686041 0.259614 38.3062 0.579901 84.4741C0.593275 86.4019 1.66279 88.0629 3.22333 88.9585L3.30591 100.862C1.76056 101.779 0.711557 103.452 0.724876 105.372L0.869852 126.269C0.889768 129.14 3.25709 131.481 6.13053 131.466C9.00397 131.451 11.3386 129.085 11.3187 126.214L11.3006 123.602L13.9128 123.588L13.9853 134.037C14.0351 141.22 19.9534 147.067 27.137 147.029L29.7492 147.015C34.0594 146.992 37.5614 143.444 37.5315 139.137L37.2053 92.1173C37.1754 87.8046 33.6245 84.2994 29.3143 84.3222L26.7021 84.336C19.5185 84.3739 13.6818 90.2825 13.7316 97.466L13.8222 110.527L11.21 110.541L11.1738 105.316C11.1604 103.396 10.0883 101.735 8.53035 100.835L8.44776 88.9308C9.99576 88.0188 11.0422 86.3466 11.0288 84.4188C10.7485 44.0239 43.2681 11.1043 83.6635 10.8907C124.059 10.6772 157.033 43.2505 157.313 83.6454C157.326 85.5732 158.396 87.2342 159.956 88.1298L160.039 100.034C158.494 100.951 157.445 102.623 157.458 104.543L157.494 109.767L154.882 109.781L154.791 96.7202C154.742 89.5367 148.823 83.6903 141.64 83.7283L139.027 83.7421C134.717 83.7649 131.215 87.3074 131.245 91.6201L131.571 138.64C131.601 142.947 135.152 146.458 139.462 146.435L142.075 146.421C149.258 146.383 155.095 140.474 155.045 133.291L154.973 122.842L157.585 122.828L157.603 125.44C157.623 128.311 159.99 130.652 162.864 130.637C165.737 130.622 168.072 128.256 168.052 125.385L167.907 104.488C167.894 102.568 166.821 100.907 165.263 100.006Z"
    fill="var(--primary-text)" />
</svg>
