<svg width="16" height="16" viewBox="0 0 16 16" fill="none" xmlns="http://www.w3.org/2000/svg">
  <g clip-path="url(#clip0_111_88)">
    <path
      d="M7.87826 1.66354C9.98176 1.66354 10.2312 1.67142 11.0624 1.7095C13.1974 1.80666 14.1947 2.81968 14.2918 4.93893C14.3299 5.76943 14.3371 6.01891 14.3371 8.1224C14.3371 10.2266 14.3292 10.4754 14.2918 11.3059C14.194 13.4232 13.1994 14.4381 11.0624 14.5353C10.2312 14.5734 9.98307 14.5813 7.87826 14.5813C5.77477 14.5813 5.52529 14.5734 4.69479 14.5353C2.55453 14.4375 1.56252 13.4199 1.46536 11.3052C1.42728 10.4747 1.4194 10.2259 1.4194 8.12175C1.4194 6.01825 1.42793 5.76943 1.46536 4.93827C1.56318 2.81968 2.55781 1.80601 4.69479 1.70884C5.52594 1.67142 5.77477 1.66354 7.87826 1.66354ZM7.87826 0.243484C5.73866 0.243484 5.4708 0.252676 4.63045 0.290754C1.76933 0.422058 0.17923 2.00953 0.0479261 4.87328C0.0091913 5.71428 0 5.98214 0 8.12175C0 10.2613 0.0091913 10.5299 0.0472696 11.3702C0.178574 14.2313 1.76604 15.8214 4.62979 15.9527C5.4708 15.9908 5.73866 16 7.87826 16C10.0179 16 10.2864 15.9908 11.1267 15.9527C13.9852 15.8214 15.5793 14.234 15.7086 11.3702C15.7473 10.5299 15.7565 10.2613 15.7565 8.12175C15.7565 5.98214 15.7473 5.71428 15.7093 4.87393C15.5806 2.01544 13.9911 0.422715 11.1274 0.291411C10.2864 0.252676 10.0179 0.243484 7.87826 0.243484ZM7.87826 4.07626C7.347 4.07626 6.82094 4.1809 6.33012 4.3842C5.8393 4.58751 5.39333 4.8855 5.01767 5.26115C4.64201 5.63681 4.34402 6.08278 4.14072 6.5736C3.93741 7.06443 3.83277 7.59048 3.83277 8.12175C3.83277 8.65301 3.93741 9.17906 4.14072 9.66989C4.34402 10.1607 4.64201 10.6067 5.01767 10.9823C5.39333 11.358 5.8393 11.656 6.33012 11.8593C6.82094 12.0626 7.347 12.1672 7.87826 12.1672C8.95119 12.1672 9.98018 11.741 10.7389 10.9823C11.4975 10.2237 11.9237 9.19468 11.9237 8.12175C11.9237 7.04882 11.4975 6.01983 10.7389 5.26115C9.98018 4.50248 8.95119 4.07626 7.87826 4.07626ZM7.87826 10.7478C7.18178 10.7478 6.51382 10.4712 6.02134 9.97867C5.52885 9.48618 5.25217 8.81823 5.25217 8.12175C5.25217 7.42526 5.52885 6.75731 6.02134 6.26482C6.51382 5.77233 7.18178 5.49566 7.87826 5.49566C8.57474 5.49566 9.2427 5.77233 9.73518 6.26482C10.2277 6.75731 10.5043 7.42526 10.5043 8.12175C10.5043 8.81823 10.2277 9.48618 9.73518 9.97867C9.2427 10.4712 8.57474 10.7478 7.87826 10.7478ZM12.0839 2.97133C11.9597 2.97133 11.8368 2.99579 11.722 3.04332C11.6073 3.09085 11.503 3.16051 11.4152 3.24833C11.3274 3.33615 11.2577 3.4404 11.2102 3.55514C11.1627 3.66988 11.1382 3.79286 11.1382 3.91705C11.1382 4.04125 11.1627 4.16422 11.2102 4.27896C11.2577 4.3937 11.3274 4.49796 11.4152 4.58578C11.503 4.67359 11.6073 4.74326 11.722 4.79078C11.8368 4.83831 11.9597 4.86277 12.0839 4.86277C12.3348 4.86277 12.5753 4.76313 12.7527 4.58578C12.93 4.40842 13.0297 4.16787 13.0297 3.91705C13.0297 3.66623 12.93 3.42568 12.7527 3.24833C12.5753 3.07097 12.3348 2.97133 12.0839 2.97133Z"
      fill="var(--primary-text)" />
  </g>
  <defs>
    <clipPath id="clip0_111_88">
      <rect width="15.7565" height="15.7565" fill="white" transform="translate(0 0.243484)" />
    </clipPath>
  </defs>
</svg>
