<svg width="32" height="32" viewBox="0 0 32 32" fill="none" xmlns="http://www.w3.org/2000/svg">
  <path d="M32 0H0V32H32V0Z" fill="#FCBC55" />
  <path
    d="M16 14.6666C16 20.9989 16 24.5545 16 25.3333C16 26.5015 15.3028 28 13.3333 28C10.1528 28 10 25.3333 10 25.3333M27.72 18.0213C26.9198 16.6738 25.8592 16 24.5381 16C22.4751 16 21.3333 17.3333 21.3333 18.6666C21.3333 20 22 21.3333 24.6779 22C26.382 22.4242 28 23.3333 28 25.3333C28 27.3333 26.2461 28 24.6667 28C22.6482 28 21.3149 27.1111 20.6667 25.3333"
    stroke="var(--primary-bg)" stroke-width="3" />
</svg>
