<svg width="24" height="24" viewBox="0 0 24 24" fill="none" xmlns="http://www.w3.org/2000/svg">
  <path
    d="M11.9999 4.40115C7.80985 4.40115 4.40088 7.81001 4.40088 12C4.40088 16.1901 7.80974 19.5989 11.9999 19.5989C16.19 19.5989 19.5989 16.1901 19.5989 12C19.5989 7.81001 16.19 4.40115 11.9999 4.40115ZM11.9999 17.8761C8.75987 17.8761 6.1238 15.2402 6.1238 12.0002C6.1238 8.76015 8.75976 6.12419 11.9999 6.12419C15.24 6.12419 17.876 8.76015 17.876 12.0002C17.876 15.2402 15.24 17.8761 11.9999 17.8761Z"
    fill="var(--primary-text)" />
  <path
    d="M11.9373 3.70175C11.9393 3.70175 11.9413 3.70175 11.9433 3.70175C12.419 3.69854 12.8021 3.31019 12.7989 2.83443L12.7854 0.855716C12.7821 0.379845 12.3947 -0.00758302 11.9181 0.000112701C11.4424 0.00332882 11.0593 0.391675 11.0625 0.867432L11.076 2.84615C11.0792 3.31984 11.4643 3.70175 11.9373 3.70175Z"
    fill="var(--primary-text)" />
  <path
    d="M18.4327 6.34034C18.6552 6.34034 18.8776 6.25477 19.0461 6.08397L20.4357 4.67531C20.7698 4.33658 20.766 3.79111 20.4274 3.45709C20.0885 3.12273 19.5432 3.12652 19.2092 3.46525L17.8195 4.87391C17.4853 5.21263 17.4891 5.75811 17.8277 6.09213C17.9955 6.25776 18.2141 6.34034 18.4327 6.34034Z"
    fill="var(--primary-text)" />
  <path
    d="M23.1387 11.0627C23.1367 11.0627 23.1346 11.0627 23.1327 11.0627L21.154 11.0761C20.6782 11.0793 20.2951 11.4677 20.2984 11.9434C20.3016 12.4172 20.6866 12.799 21.1597 12.799C21.1617 12.799 21.1637 12.799 21.1657 12.799L23.1444 12.7856C23.6202 12.7824 24.0032 12.394 24 11.9183C23.9967 11.4446 23.6117 11.0627 23.1387 11.0627Z"
    fill="var(--primary-text)" />
  <path
    d="M19.1261 17.8197C18.7873 17.4854 18.2418 17.4892 17.9078 17.8279C17.5737 18.1666 17.5775 18.7121 17.9161 19.0461L19.3248 20.4358C19.4926 20.6014 19.7112 20.684 19.9297 20.684C20.1522 20.684 20.3746 20.5985 20.5431 20.4277C20.8772 20.0889 20.8734 19.5435 20.5348 19.2094L19.1261 17.8197Z"
    fill="var(--primary-text)" />
  <path
    d="M12.0566 20.2986C11.5808 20.3018 11.1977 20.6901 11.2009 21.1659L11.2144 23.1446C11.2176 23.6184 11.6026 24.0002 12.0757 24.0002C12.0777 24.0002 12.0798 24.0002 12.0817 24.0002C12.5575 23.997 12.9405 23.6086 12.9373 23.1329L12.9239 21.1542C12.9207 20.6783 12.5305 20.297 12.0566 20.2986Z"
    fill="var(--primary-text)" />
  <path
    d="M4.95392 17.9162L3.56433 19.3249C3.23019 19.6636 3.23398 20.2091 3.5726 20.5431C3.74041 20.7087 3.95899 20.7913 4.17757 20.7913C4.40006 20.7913 4.62243 20.7057 4.79093 20.5349L6.18053 19.1263C6.51466 18.7875 6.51087 18.2421 6.17226 17.908C5.83341 17.5737 5.28794 17.5775 4.95392 17.9162Z"
    fill="var(--primary-text)" />
  <path
    d="M3.70155 12.0568C3.69833 11.583 3.31331 11.2012 2.8402 11.2012C2.83825 11.2012 2.83618 11.2012 2.83423 11.2012L0.855623 11.2146C0.379867 11.2178 -0.00319602 11.6062 2.01041e-05 12.0819C0.00323623 12.5557 0.388252 12.9375 0.861366 12.9375C0.863319 12.9375 0.865386 12.9375 0.867339 12.9375L2.84606 12.9241C3.3217 12.9208 3.70476 12.5324 3.70155 12.0568Z"
    fill="var(--primary-text)" />
  <path
    d="M4.87384 6.18059C5.04165 6.34622 5.26023 6.42881 5.47881 6.42881C5.7013 6.42881 5.92367 6.34323 6.09217 6.17244C6.4263 5.83371 6.42251 5.28823 6.0839 4.95421L4.67512 3.56439C4.3364 3.22991 3.79092 3.23393 3.4569 3.57255C3.12277 3.91127 3.12656 4.45675 3.46517 4.79077L4.87384 6.18059Z"
    fill="var(--primary-text)" />
</svg>
