<svg width="24" height="12" viewBox="0 0 24 12" fill="none" xmlns="http://www.w3.org/2000/svg">
  <path
    d="M10.4956 10.2372C10.8267 10.6512 11.2112 11.015 11.6396 11.2659C11.7419 11.3412 11.8538 11.3851 11.9658 11.4415C12.0729 11.498 12.1849 11.5482 12.3017 11.5796C12.4185 11.6172 12.5208 11.6611 12.6473 11.6862C12.7739 11.7113 12.9005 11.7364 13.0271 11.7552C13.1244 11.7677 13.1877 11.7677 13.2656 11.774L13.3824 11.7803H13.4409H13.5382L14.0007 11.774L14.9256 11.7552L16.7804 11.6987L18.6352 11.6297L19.0976 11.6109L19.3313 11.6046C19.4092 11.6046 19.5114 11.5921 19.599 11.5796C19.9642 11.5545 20.3195 11.4415 20.6652 11.3035C21.9455 10.9774 23.1382 9.75419 23.6639 8.07938L23.7613 7.76574L23.8343 7.43956C23.8879 7.23256 23.922 6.98166 23.9512 6.73702L23.9706 6.55511L23.9804 6.41711L23.995 6.14739L23.9998 6.07839V5.99684V5.97802V5.93411L23.995 5.76475L23.9852 5.42602C23.9268 4.51648 23.6932 3.62576 23.3232 2.84794C22.9532 2.07012 22.4372 1.40522 21.8335 0.928491L21.6047 0.752856C21.5268 0.702675 21.4441 0.652493 21.3662 0.602311C21.2104 0.495675 21.04 0.420403 20.8745 0.34513C20.709 0.263585 20.5337 0.219676 20.3633 0.163221C20.1832 0.11304 19.9739 0.0816763 19.7938 0.0565855L19.5844 0.0440402L19.4773 0.0377672L19.3751 0.031495H19.3216H18.898H18.0558C17.496 0.0252223 16.9313 0.0189496 16.3715 0.000131483C16.1719 -0.00614123 15.8603 0.213403 15.7581 0.363948C15.5634 0.67131 15.8165 0.928492 16.1962 1.12295C16.8242 1.44913 17.5155 1.68122 18.2457 1.83803C18.6108 1.91958 18.9857 1.98231 19.3654 2.02622H19.3751C19.4043 2.02622 19.341 2.02622 19.3459 2.02622H19.3508L19.3702 2.03249L19.4043 2.03876L19.4773 2.05131L19.6185 2.0764C19.7256 2.08894 19.784 2.12031 19.8522 2.13912C19.9836 2.17049 20.1443 2.24576 20.2903 2.30849C21.0059 2.64721 21.595 3.34976 21.9114 4.20285C22.0721 4.62939 22.1646 5.0873 22.1938 5.5452C22.223 5.99057 22.1743 6.53629 22.0769 6.91265C21.8773 7.78456 21.4149 8.54356 20.821 9.01401C20.524 9.25237 20.1978 9.42174 19.8522 9.50956C19.7646 9.5221 19.6818 9.55974 19.5893 9.55974L19.4579 9.57855C19.4141 9.58483 19.3751 9.5911 19.3118 9.5911L18.6108 9.62246C18.1483 9.59737 17.6859 9.57856 17.2234 9.55346C16.4883 9.52837 15.7532 9.50328 15.023 9.49074L13.9228 9.47819H13.6453H13.5139H13.4895L13.4214 9.47192L13.1536 9.4531C13.1001 9.44056 13.0465 9.42801 12.993 9.41547C12.7496 9.35274 12.477 9.25865 12.2384 9.10183C11.9999 8.94501 11.7711 8.75056 11.5666 8.51847C11.367 8.2801 11.1869 8.00411 11.036 7.70929C10.8899 7.40193 10.778 7.07574 10.6952 6.72447C10.6757 6.62411 10.6563 6.52375 10.6319 6.42966C10.6076 6.33557 10.5979 6.2352 10.5735 6.14739C10.5248 5.96548 10.4908 5.78984 10.4372 5.6393C10.3398 5.33821 10.2133 5.11239 9.98934 5.09357C9.78975 5.07475 9.57555 5.23784 9.42464 5.60166C9.34675 5.78357 9.28833 6.00939 9.26399 6.27284C9.22504 6.53629 9.23478 6.83738 9.26886 7.15729C9.4003 8.29265 9.82383 9.40292 10.4956 10.2372Z"
    fill="#254A58" />
  <path
    d="M3.19837 2.98599C3.49532 2.74763 3.82149 2.57826 4.16713 2.49045C4.25475 2.4779 4.33751 2.44026 4.43001 2.44026L4.56145 2.42772C4.60526 2.42145 4.6442 2.41517 4.70749 2.41517L5.4085 2.38381C5.87098 2.4089 6.33345 2.42772 6.79592 2.45281C7.53101 2.4779 8.2661 2.50299 8.99632 2.51554L10.0965 2.52808H10.374H10.5054H10.5298L10.5979 2.53436L10.8657 2.55317C10.9192 2.56572 10.9728 2.57826 11.0263 2.59081C11.2697 2.65354 11.5424 2.74763 11.7809 2.90444C12.0194 3.06126 12.2482 3.25572 12.4527 3.48781C12.6523 3.72617 12.8324 4.00217 12.9833 4.29699C13.1294 4.60435 13.2413 4.93053 13.3241 5.2818C13.3436 5.38216 13.363 5.48253 13.3874 5.57662C13.4117 5.67071 13.4215 5.77107 13.4458 5.85889C13.4945 6.0408 13.5286 6.21644 13.5821 6.36698C13.6795 6.66807 13.806 6.89389 14.03 6.9127C14.2296 6.93152 14.4438 6.76843 14.5947 6.40462C14.6726 6.22271 14.731 5.99689 14.7553 5.73344C14.7943 5.46998 14.7845 5.16889 14.7505 4.84898C14.6044 3.70735 14.176 2.59081 13.5042 1.76281C13.1732 1.34881 12.7886 0.984997 12.3602 0.734088C12.258 0.658816 12.146 0.614907 12.034 0.558452C11.9269 0.501998 11.815 0.451817 11.6981 0.420453C11.5813 0.382817 11.4791 0.338908 11.3525 0.313817C11.2259 0.288726 11.0994 0.263635 10.9728 0.244817C10.8754 0.232272 10.8121 0.232271 10.7294 0.225999L10.6125 0.219727H10.5541H10.4568L9.99429 0.225999L9.06934 0.244817L7.21458 0.301271L5.35982 0.370271L4.89735 0.389089L4.66368 0.395362C4.58579 0.395362 4.48356 0.407908 4.4008 0.420453C4.03569 0.445544 3.68031 0.558452 3.33468 0.696452C2.05435 1.02263 0.861661 2.24581 0.335902 3.92062L0.238539 4.23426L0.165517 4.56044C0.111967 4.76744 0.0778902 5.01835 0.0486814 5.26298L0.0292088 5.44489L0.0194726 5.58289L0.00486814 5.85262L0 5.92162V6.00316V6.02198V6.06589L0.00486814 6.23525L0.0146044 6.57398C0.0730221 7.48352 0.306693 8.37425 0.676671 9.15206C1.04665 9.92988 1.56267 10.5948 2.16632 11.0715L2.39512 11.2471C2.47301 11.2973 2.55577 11.3475 2.63366 11.3977C2.78944 11.5043 2.95983 11.5796 3.12535 11.6549C3.29086 11.7364 3.46611 11.7803 3.6365 11.8368C3.81662 11.887 4.02595 11.9183 4.20607 11.9434L4.4154 11.956L4.5225 11.9622L4.62473 11.9685H4.67828H5.10181H5.944C6.50383 11.9748 7.06854 11.9811 7.62837 11.9999C7.82797 12.0061 8.13953 11.7866 8.24176 11.6361C8.43648 11.3287 8.18334 11.0715 7.80363 10.8771C7.17564 10.5509 6.48436 10.3188 5.75414 10.162C5.38903 10.0804 5.01418 10.0177 4.63447 9.97379H4.62473C4.59552 9.97379 4.65881 9.97379 4.65394 9.97379H4.64907L4.6296 9.96751L4.59552 9.96124L4.5225 9.9487L4.38133 9.9236C4.27423 9.91106 4.21581 9.8797 4.14765 9.86088C4.01621 9.82951 3.85557 9.75424 3.70952 9.69152C2.99391 9.35279 2.40486 8.65025 2.08843 7.79716C1.92778 7.37061 1.83529 6.91271 1.80608 6.4548C1.77687 6.00944 1.82555 5.46371 1.92291 5.08735C2.14685 4.21544 2.60445 3.46272 3.19837 2.98599Z"
    fill="#254A58" />
</svg>
