<svg width="16" height="17" viewBox="0 0 16 17" fill="none" xmlns="http://www.w3.org/2000/svg">
  <g clip-path="url(#clip0_111_84)">
    <path
      d="M3.26948 2.91957C3.26948 3.82622 2.54074 4.56087 1.6413 4.56087C0.74187 4.56087 0.0131304 3.82622 0.0131304 2.91957C0.0131304 2.01357 0.74187 1.27826 1.6413 1.27826C2.54074 1.27826 3.26948 2.01357 3.26948 2.91957ZM3.28261 5.87392H0V16.3783H3.28261V5.87392ZM8.52297 5.87392H5.26136V16.3783H8.52362V10.8641C8.52362 7.79818 12.4818 7.54739 12.4818 10.8641V16.3783H15.7565V9.72704C15.7565 4.55365 9.89903 4.74207 8.52297 7.28872V5.87392Z"
      fill="#254A58" />
  </g>
  <defs>
    <clipPath id="clip0_111_84">
      <rect width="15.7565" height="15.7565" fill="white" transform="translate(0 0.621742)" />
    </clipPath>
  </defs>
</svg>
