<svg width="70" height="73" viewBox="0 0 70 73" fill="none" xmlns="http://www.w3.org/2000/svg">
  <path
    d="M50.566 15.181L37.6997 34.8314C37.3062 35.4325 36.4267 35.4349 36.0328 34.8341C27.3774 21.6342 14.2995 0.109723 2 2.13303V61.5055C2.64143 64.7127 6.22538 71.0172 15.4441 71.4449C15.9958 71.4705 16.4453 71.0201 16.4453 70.4678V38.4952C16.4453 37.6072 17.5163 37.1597 18.148 37.7838L36.0967 55.5135C36.5122 55.9239 37.1895 55.8924 37.5652 55.4452L51.2909 39.1033C51.8912 38.3885 53.0566 38.813 53.0566 39.7464V69.7106C53.0566 70.1602 53.3551 70.5584 53.7959 70.6474C57.9393 71.4841 65.5633 70.6901 68 61.5055V15.181"
    stroke="var(--primary-text)" stroke-width="2.5" />
  <path d="M52.3094 12.7184C55.2151 8.73354 62.4211 1.0626 68 2.25807V12.7184" stroke="#FFCB77" stroke-width="4" />
</svg>
