<svg width="20" height="32" viewBox="0 0 20 32" fill="none" xmlns="http://www.w3.org/2000/svg">
  <path
    d="M9.99992 1.06667L10.7862 0.345894C10.5842 0.125489 10.2989 0 9.99992 0C9.70091 0 9.41565 0.125489 9.21362 0.345894L9.99992 1.06667ZM9.99992 28.8L9.16118 29.459C9.3634 29.7165 9.67258 29.8667 9.99992 29.8667C10.3272 29.8667 10.6364 29.7165 10.8386 29.459L9.99992 28.8ZM3.86209 20.9882L3.02335 21.6471L3.86209 20.9882ZM4.3865 7.1904L3.6002 6.46961L4.3865 7.1904ZM15.6134 7.19038L16.3995 6.46961L15.6134 7.19038ZM16.1378 20.9882L16.9764 21.6471L16.1378 20.9882ZM11.0666 32V1.06667H8.93326V32H11.0666ZM10.8386 28.141L4.70081 20.3292L3.02335 21.6471L9.16118 29.459L10.8386 28.141ZM5.17279 7.91117L10.7862 1.78744L9.21362 0.345894L3.6002 6.46961L5.17279 7.91117ZM9.21362 1.78744L14.827 7.91117L16.3995 6.46961L10.7862 0.345894L9.21362 1.78744ZM15.299 20.3292L9.16118 28.141L10.8386 29.459L16.9764 21.6471L15.299 20.3292ZM14.827 7.91117C18.0036 11.3766 18.2035 16.6326 15.299 20.3292L16.9764 21.6471C20.5263 17.1292 20.2822 10.7051 16.3995 6.46961L14.827 7.91117ZM4.70081 20.3292C1.79638 16.6326 1.99615 11.3766 5.17279 7.91117L3.6002 6.46961C-0.282361 10.7052 -0.526521 17.1292 3.02335 21.6471L4.70081 20.3292Z"
    fill="var(--primary-text)" />
</svg>
