<svg width="40" height="32" viewBox="0 0 40 32" fill="none" xmlns="http://www.w3.org/2000/svg">
  <path
    d="M27.4849 0C27.2823 0 27.0968 0.204546 27.0968 0.489131V9.4269L25.4889 8.24536C25.3883 8.17055 25.2748 8.13419 25.1613 8.13419C25.0477 8.13419 24.9343 8.17055 24.8337 8.24536L20.9703 11.0849C20.769 11.2312 20.6452 11.5021 20.6452 11.7932V17.4785C20.6452 17.7712 20.769 18.0404 20.9703 18.1868L24.8337 21.0263C24.9343 21.1011 25.0477 21.1375 25.1613 21.1375C25.2748 21.1375 25.3883 21.1011 25.4889 21.0263L29.3523 18.1868C29.5536 18.0404 29.6774 17.7696 29.6774 17.4785V14.6358V11.7932V2.00099C29.6774 1.71153 29.5548 1.44542 29.3574 1.29906L27.6764 0.0666997C27.6132 0.0211661 27.5494 0 27.4849 0ZM14.8387 8.13419C14.7255 8.13419 14.6124 8.17137 14.5111 8.24536L10.6477 11.0849C10.4464 11.2312 10.3226 11.5021 10.3226 11.7932V17.4785C10.3226 17.7712 10.4464 18.0404 10.6477 18.1868L14.5111 21.0263C14.7137 21.1743 14.9637 21.1743 15.1663 21.0263L19.0297 18.1868C19.231 18.0404 19.3548 17.7696 19.3548 17.4785V11.7932C19.3548 11.5004 19.231 11.2312 19.0297 11.0849L15.1663 8.24536C15.065 8.17137 14.9519 8.13419 14.8387 8.13419ZM35.4839 8.13419C35.3703 8.13419 35.2569 8.17055 35.1562 8.24536L31.2928 11.0849C31.0916 11.2312 30.9677 11.5021 30.9677 11.7932V17.4785C30.9677 17.7712 31.0916 18.0404 31.2928 18.1868L35.0403 21.0422C35.2416 21.1967 35.4942 21.1981 35.6981 21.0485L37.5403 19.6987C37.7313 19.5604 37.7326 19.2113 37.5403 19.0698L33.5484 16.1064V13.1875L35.4839 11.7677L37.4194 13.1875V15.2202C37.4194 15.4918 37.6005 15.5336 37.7218 15.4426C38.2095 15.0816 39.6799 14.0069 39.6799 14.0069C39.8774 13.8622 40 13.5945 40 13.305V11.7932C40 11.5004 39.8762 11.2312 39.6749 11.0849L35.8115 8.24536C35.7096 8.17055 35.5974 8.13419 35.4839 8.13419ZM4.51613 8.13737C4.40258 8.13737 4.28915 8.17373 4.18851 8.24854L0.325101 11.0849C0.12381 11.2328 0 11.5036 0 11.7963V19.0539C0 19.4084 0.304294 19.6282 0.546875 19.4509L2.26058 18.1932C2.458 18.0468 2.58065 17.7807 2.58065 17.4912V13.1938L4.51613 11.7709L6.45161 13.1938V17.4912C6.45161 17.7807 6.57425 18.0468 6.77167 18.1932L8.48538 19.4509C8.72796 19.6298 9.03226 19.4084 9.03226 19.0539V11.7963C9.03226 11.5036 8.90845 11.2328 8.70716 11.0849L4.84375 8.24854C4.7431 8.17373 4.62968 8.13737 4.51613 8.13737ZM25.1613 11.7677L27.0968 13.1907V14.6358V16.081L25.1613 17.5039L23.2258 16.081V13.1907L25.1613 11.7677ZM35.4839 13.016L34.3775 13.8291V15.4521L35.4839 16.262L36.5902 15.4521V13.8291L35.4839 13.016ZM19.879 19.5113C19.7463 19.5113 19.6121 19.5522 19.496 19.6351L15.8669 22.2777C15.6282 22.4436 15.4839 22.77 15.4839 23.1099V28.3887C15.4839 28.7286 15.6347 29.0485 15.8669 29.2208L16.8221 29.9069C17.2801 30.1915 17.4485 30.1928 17.6562 30.1928C18.3401 30.1928 18.7298 29.6773 18.7298 28.7666V23.5514C18.7298 23.4717 18.6808 23.4148 18.624 23.4148H18.1653C18.1021 23.4148 18.057 23.4798 18.057 23.5514V28.7666C18.057 29.1618 17.7256 29.5671 17.185 29.2272L16.192 28.5062C16.1598 28.4818 16.1366 28.4327 16.1366 28.3855V23.1067C16.1366 23.0595 16.1546 23.004 16.192 22.9797L19.8211 20.3434C19.8598 20.319 19.9035 20.319 19.9345 20.3434L23.566 22.9797C23.6034 23.004 23.6215 23.0514 23.6215 23.1067V28.3855C23.6215 28.4408 23.597 28.4882 23.566 28.5126L19.9345 31.1583C19.9022 31.1827 19.852 31.1827 19.8211 31.1583L18.8936 30.4627C18.8691 30.4465 18.83 30.4369 18.8054 30.4532C18.5487 30.6435 18.4973 30.6684 18.2586 30.7708C18.1953 30.7952 18.1094 30.8441 18.2913 30.9709L19.496 31.873C19.616 31.9526 19.7474 32 19.879 32C20.0171 32 20.1512 31.9528 20.2571 31.8666L23.8861 29.2208C24.1248 29.055 24.2692 28.7286 24.2692 28.3887V23.1099C24.2692 22.77 24.1183 22.4517 23.8861 22.2777L20.2571 19.6351C20.1442 19.5522 20.0118 19.5113 19.879 19.5113ZM25.5393 21.9474C25.169 21.9474 24.8437 22.3248 24.8437 22.824C24.8437 23.307 25.1561 23.7038 25.5393 23.7038C25.9225 23.7038 26.2349 23.307 26.2349 22.824C26.2349 22.3248 25.9161 21.9393 25.5393 21.9474ZM25.5318 22.0871C25.8595 22.0871 26.124 22.4126 26.124 22.824C26.124 23.2273 25.8582 23.5607 25.5318 23.5704C25.2105 23.5704 24.9496 23.2354 24.9496 22.824C24.9496 22.4126 25.2118 22.0871 25.5318 22.0871ZM25.2772 22.3254V23.3132H25.4259V22.9193H25.5645C25.6213 22.9193 25.6348 22.9498 25.6477 23.0051C25.6477 23.0132 25.6715 23.2692 25.6779 23.3163H25.8392C25.8211 23.2692 25.8079 23.134 25.8014 23.0527C25.7833 22.9259 25.7775 22.8385 25.6704 22.8304C25.7271 22.806 25.8216 22.7679 25.8216 22.5858C25.8216 22.324 25.6411 22.3254 25.5469 22.3254H25.2772ZM25.4259 22.4842H25.5519C25.5906 22.4842 25.6653 22.4826 25.6653 22.6176C25.6653 22.6729 25.6463 22.7621 25.5444 22.7605H25.4259V22.4842ZM20.8518 23.2909C19.8157 23.2909 19.2011 23.8475 19.2011 24.7647C19.2011 25.7697 19.8167 26.0385 20.809 26.1654C21.9961 26.315 22.0892 26.5301 22.0892 26.8228C22.0892 27.3367 21.7619 27.5502 20.9955 27.5502C20.0342 27.5502 19.8227 27.2498 19.753 26.6481C19.7466 26.5847 19.7014 26.537 19.6447 26.537H19.1734C19.1166 26.537 19.0675 26.5939 19.0675 26.6735C19.0675 27.4411 19.3995 28.3601 20.9879 28.3601C22.1531 28.3585 22.8125 27.7896 22.8125 26.7911C22.8125 25.8023 22.2843 25.5393 21.1668 25.3491C20.0365 25.1588 19.9244 25.0631 19.9244 24.7297C19.9244 24.4533 20.017 24.0913 20.8518 24.0913C21.5989 24.0913 21.8774 24.2972 21.9909 24.9298C22.0038 24.9932 22.0389 25.0315 22.0892 25.0315H22.5605C22.5915 25.0315 22.618 25.0161 22.6361 24.9933C22.6554 24.9625 22.6677 24.9307 22.6613 24.8917C22.5865 23.7989 22.0144 23.2909 20.8518 23.2909Z"
    fill="#254A58" />
</svg>
