<svg width="34" height="32" viewBox="0 0 34 32" fill="none" xmlns="http://www.w3.org/2000/svg">
  <path
    d="M34 16C34 13.6222 31.1812 11.3636 26.8556 9.96615C27.855 5.30806 27.4091 1.60325 25.4564 0.417062C25.0054 0.140826 24.4775 0.00541639 23.9035 0.00541639V1.64116C24.2213 1.64116 24.4775 1.70616 24.6928 1.83074C25.6358 2.39946 26.0458 4.57684 25.7229 7.3717C25.6461 8.05958 25.5231 8.78537 25.3693 9.522C24.0112 9.16994 22.53 8.89912 20.9668 8.72579C20.0289 7.3717 19.0603 6.14218 18.0865 5.06432C20.3467 2.8436 22.4634 1.63033 23.9087 1.63033V0C22.0021 0 19.5062 1.43534 16.9846 3.92688C14.4631 1.45159 11.9671 0.0270819 10.0657 0.0270819V1.66283C11.5008 1.66283 13.6277 2.87068 15.8878 5.07515C14.9192 6.15301 13.9454 7.37711 13.028 8.73121C11.4598 8.90454 9.97859 9.17535 8.62044 9.53825C8.46156 8.80704 8.34368 8.09749 8.26168 7.41503C7.93367 4.62018 8.33856 2.44279 9.27133 1.86324C9.48146 1.73324 9.74797 1.67366 10.0657 1.67366V0.0379147C9.48146 0.0379147 8.9587 0.167908 8.49744 0.44956C6.54989 1.63575 6.11426 5.33514 7.11878 9.97698C2.80856 11.3852 0 13.633 0 16.0054C0 18.3832 2.81881 20.6418 7.14441 22.0393C6.14501 26.6974 6.5909 30.4022 8.54356 31.5884C8.99457 31.8646 9.52246 32 10.1016 32C12.0081 32 14.5041 30.5647 17.0256 28.0731C19.5472 30.5484 22.0431 31.9675 23.9497 31.9675C24.5339 31.9675 25.0567 31.8375 25.5179 31.5559C27.4655 30.3697 27.9011 26.6703 26.8966 22.0284C31.1914 20.631 34 18.3724 34 16V16ZM24.9747 11.1144C24.7184 12.0569 24.4007 13.0318 24.0368 14.0068C23.7549 13.4218 23.4525 12.8368 23.1296 12.2519C22.8119 11.6669 22.4736 11.0928 22.1302 10.5403C23.1194 10.6919 24.0675 10.8815 24.9747 11.1144V11.1144ZM21.8022 18.914C21.2641 19.9052 20.7055 20.8422 20.1314 21.7089C19.1013 21.8064 18.0506 21.8551 17 21.8551C15.9545 21.8551 14.909 21.8064 13.8839 21.7143C13.3099 20.8422 12.7462 19.9106 12.208 18.9303C11.6801 17.9716 11.2035 16.9966 10.7679 16.0162C11.1984 15.0359 11.6801 14.0555 12.2029 13.0968C12.741 12.1056 13.2997 11.1686 13.8737 10.302C14.9038 10.2045 15.9545 10.1557 17.0051 10.1557C18.0506 10.1557 19.0962 10.2045 20.1212 10.2965C20.6952 11.1686 21.259 12.1002 21.7971 13.0806C22.325 14.0393 22.8016 15.0142 23.2373 15.9946C22.8016 16.9749 22.3199 17.9553 21.8022 18.914ZM24.0419 17.9661C24.416 18.9465 24.7338 19.9269 25.0003 20.8802C24.0932 21.1131 23.1348 21.3135 22.1456 21.4651C22.4839 20.9018 22.8221 20.3223 23.145 19.7319C23.4576 19.1415 23.7549 18.5511 24.0419 17.9661ZM17.0154 25.7766C16.3696 25.0724 15.729 24.2925 15.0883 23.4313C15.7136 23.4584 16.3491 23.48 16.9949 23.48C17.6458 23.48 18.2915 23.4638 18.9219 23.4313C18.2967 24.2925 17.6509 25.0724 17.0154 25.7766ZM11.8595 21.4651C10.8755 21.3135 9.92734 21.1185 9.0202 20.8856C9.27645 19.9431 9.59421 18.9682 9.95809 17.9932C10.24 18.5782 10.5424 19.1632 10.8652 19.7481C11.1881 20.3385 11.5213 20.9072 11.8595 21.4651ZM16.9795 6.22343C17.6253 6.92756 18.2659 7.70751 18.9065 8.56872C18.2813 8.54164 17.6458 8.51997 17 8.51997C16.3491 8.51997 15.7033 8.53622 15.073 8.56872C15.6982 7.71293 16.344 6.92756 16.9795 6.22343V6.22343ZM11.8493 10.5403C11.511 11.1036 11.1727 11.6831 10.8499 12.2735C10.5321 12.8585 10.2348 13.4435 9.94784 14.0284C9.57371 13.0481 9.25595 12.0677 8.98945 11.1144C9.90684 10.8869 10.8601 10.6919 11.8493 10.5403V10.5403ZM5.58125 19.7048C3.12632 18.5999 1.54266 17.1483 1.54266 16C1.54266 14.8517 3.13144 13.3947 5.58125 12.2952C6.17576 12.0244 6.82665 11.7806 7.50316 11.5531C7.8978 12.9885 8.41544 14.4834 9.0612 16.0108C8.42569 17.5328 7.91317 19.0223 7.52367 20.4468C6.8369 20.2248 6.18089 19.9756 5.58125 19.7048V19.7048ZM9.3072 30.1693C8.36418 29.6005 7.95418 27.4232 8.27706 24.6283C8.35393 23.9404 8.47694 23.2146 8.63069 22.478C9.98885 22.8301 11.47 23.1009 13.0332 23.2742C13.9711 24.6283 14.9397 25.8578 15.9135 26.9357C13.6533 29.1564 11.5366 30.3697 10.0913 30.3697C9.77872 30.3642 9.51733 30.2938 9.3072 30.1693V30.1693ZM25.7434 24.5904C26.0714 27.3852 25.6666 29.5626 24.7338 30.1422C24.5237 30.2722 24.2572 30.3318 23.9394 30.3318C22.5044 30.3318 20.3774 29.1239 18.1173 26.9194C19.0859 25.8416 20.0597 24.6175 20.9771 23.2634C22.5454 23.09 24.0265 22.8192 25.3847 22.4563C25.5436 23.1984 25.6666 23.9079 25.7434 24.5904ZM28.4136 19.7048C27.8191 19.9756 27.1682 20.2194 26.4917 20.4468C26.0971 19.0115 25.5794 17.5166 24.9337 15.9892C25.5692 14.4672 26.0817 12.9777 26.4712 11.5531C27.158 11.7806 27.8089 12.0298 28.4188 12.3006C30.8737 13.4055 32.4573 14.8571 32.4573 16.0054C32.4522 17.1483 30.8634 18.6053 28.4136 19.7048Z"
    fill="#254A58" />
  <path
    d="M16.9949 18.474C18.2884 18.474 19.3371 17.3658 19.3371 15.9987C19.3371 14.6317 18.2884 13.5234 16.9949 13.5234C15.7013 13.5234 14.6527 14.6317 14.6527 15.9987C14.6527 17.3658 15.7013 18.474 16.9949 18.474Z"
    fill="#254A58" />
</svg>
