<svg width="32" height="32" viewBox="0 0 32 32" fill="none" xmlns="http://www.w3.org/2000/svg">
  <g clip-path="url(#clip0_125_43)">
    <path
      d="M31.9931 19.1189C31.9794 19.4241 31.576 19.7658 30.7463 20.1989C29.0377 21.088 20.1909 24.7326 18.3086 25.7086C17.6354 26.1875 16.7954 26.4743 15.8903 26.4743C15.1577 26.4743 14.4697 26.2869 13.8697 25.9578L13.8914 25.9692C12.4011 25.2583 2.98971 21.4549 1.29371 20.6446C0.446857 20.2446 0.0148571 19.8983 0 19.5783V22.8126C0 23.1349 0.445714 23.4789 1.29371 23.8789C2.98971 24.6892 12.4046 28.4926 13.8914 29.2035C14.4674 29.5201 15.1543 29.7063 15.8846 29.7063C16.7931 29.7063 17.6343 29.4183 18.3211 28.9281L18.3086 28.9372C20.1909 27.9555 29.0377 24.3189 30.7463 23.4275C31.6149 22.9749 31.9989 22.6275 31.9989 22.3052C31.9989 21.9829 31.9989 19.1155 31.9989 19.1155L31.9931 19.1189Z"
      fill="#254A58" />
    <path
      d="M31.9909 13.8457C31.976 14.1508 31.5738 14.4914 30.7452 14.9246C29.0366 15.8137 20.1898 19.4583 18.3075 20.4343C17.6332 20.9154 16.792 21.2023 15.8835 21.2023C15.1532 21.2023 14.4663 21.016 13.8686 20.6891L13.8903 20.7006C12.4 19.984 2.98862 16.1806 1.29262 15.3703C0.445759 14.9703 0.0137585 14.624 -0.00109863 14.304V17.5383C-0.00109863 17.8606 0.444616 18.2046 1.29262 18.6046C2.98862 19.4148 12.4023 23.2183 13.8903 23.9291C14.4686 24.2468 15.1566 24.4343 15.8892 24.4343C16.7955 24.4343 17.6343 24.1474 18.3212 23.6606L18.3086 23.6697C20.1909 22.688 29.0378 19.0491 30.7463 18.16C31.6149 17.7063 31.9989 17.36 31.9989 17.0354C31.9989 16.7108 31.9989 13.8457 31.9989 13.8457H31.9909Z"
      fill="#254A58" />
    <path
      d="M31.9908 8.37605C32.0068 8.05034 31.5817 7.76577 30.7257 7.45034C29.0674 6.84119 20.2662 3.34062 18.5839 2.72348C17.9805 2.44691 17.2765 2.28577 16.5337 2.28577C15.6948 2.28577 14.9039 2.49148 14.2079 2.85491L14.2354 2.8412C12.2571 3.55205 2.89365 7.22405 1.22851 7.87548C0.395365 8.20348 -0.0126346 8.50634 0.00222255 8.82862V12.0629C0.00222255 12.3852 0.447937 12.7292 1.29594 13.1292C2.99194 13.9395 12.4057 17.7441 13.8937 18.4549C14.4697 18.7715 15.1565 18.9566 15.8868 18.9566C16.7954 18.9566 17.6365 18.6686 18.3245 18.1795L18.3119 18.1886C20.1942 17.2069 29.0411 13.5681 30.7497 12.6789C31.6182 12.2252 32.0022 11.8789 32.0022 11.5543C32.0022 11.2298 32.0022 8.36462 32.0022 8.36462H31.9919L31.9908 8.37605ZM11.4571 11.4435L18.8719 10.3052L16.6319 13.5898L11.4571 11.4435ZM27.8582 8.48577L22.9977 10.4058L18.6148 8.66519L23.4674 6.74634L27.8537 8.48005L27.8582 8.48577ZM14.9839 5.30291L14.2662 3.98062L16.5039 4.85491L18.6137 4.16462L18.0434 5.53148L20.1931 6.33148L17.4205 6.61948L16.7999 8.11777L15.7954 6.45262L12.5954 6.16462L14.9851 5.30291H14.9839ZM9.46737 7.16805C11.6571 7.16805 13.4297 7.85605 13.4297 8.70405C13.4297 9.55205 11.6479 10.2401 9.46737 10.2401C7.28679 10.2401 5.49708 9.55091 5.49708 8.70405C5.49708 7.8572 7.27194 7.16805 9.46737 7.16805Z"
      fill="#254A58" />
  </g>
</svg>
