<svg width="38" height="32" viewBox="0 0 38 32" fill="none" xmlns="http://www.w3.org/2000/svg">
<path d="M17.9197 0.020772C16.1294 -0.0878535 14.1166 0.22759 12.1477 1.01345C9.01888 2.2615 5.63484 4.22451 3.20147 6.78178C0.31082 9.82545 -0.152859 12.4744 0.037149 13.5826C0.713577 17.5132 5.53507 20.0773 7.46428 21.9734C7.36928 22.0331 7.28068 22.0845 7.19708 22.1384C6.22931 22.6787 2.63915 24.8012 1.71951 27.0847C0.680801 29.674 1.89137 31.5273 2.68687 31.7807C5.16837 32.5555 7.62404 31.2015 8.9883 28.9136C10.3538 26.6243 10.1894 23.6366 9.55981 22.2749C9.55348 22.2545 9.5414 22.2413 9.53507 22.2209C9.78461 22.0534 10.0387 21.8849 10.2946 21.7174C10.7874 21.3898 11.2682 21.0907 11.69 20.83C11.4518 21.5509 11.2802 22.4205 11.1902 23.6743C11.0838 25.1423 11.6228 27.0416 12.3233 27.7901C12.6324 28.1178 13.0057 28.1257 13.2363 28.1257C14.0558 28.1257 14.4242 27.3648 14.832 26.4561C15.3362 25.3478 15.7821 24.0612 15.7821 24.0612C15.7821 24.0612 15.2255 27.5426 16.7519 27.5426C17.3093 27.5426 17.868 26.736 18.1176 26.3224V26.3281C18.1176 26.3281 18.1268 26.3023 18.1572 26.2485C18.2167 26.148 18.2462 26.0892 18.2462 26.0892V26.0693C18.4717 25.6353 18.9661 24.6415 19.7084 23.0002C20.6698 20.8784 21.5887 18.2274 21.5887 18.2274C21.6774 18.8099 21.8003 19.3846 21.9573 19.9482C22.1233 20.5817 22.4753 21.2764 22.754 21.9507C22.5285 22.2973 22.3903 22.4968 22.3903 22.4968C22.3903 22.5026 22.3939 22.5081 22.3977 22.511C22.2191 22.7775 22.0166 23.0633 21.8089 23.3444C21.0489 24.3594 20.1454 25.5224 20.0276 25.8559C19.8844 26.2491 19.921 26.5418 20.1933 26.769C20.3947 26.9423 20.7536 26.9688 21.126 26.9368C21.8088 26.8829 22.2896 26.695 22.5214 26.5756C22.9483 26.4037 23.3515 26.1672 23.7189 25.8702C24.4612 25.2556 24.9136 24.3742 24.8718 23.2135C24.8477 22.5728 24.6618 21.9306 24.4363 21.3306C24.5022 21.2243 24.5746 21.1114 24.6392 20.9978C25.8147 19.0697 26.7224 16.9531 26.7224 16.9531C26.811 17.5357 26.9339 18.1104 27.091 18.674C27.2341 19.2143 27.513 19.808 27.7689 20.3891C26.6656 21.3969 25.9808 22.5655 25.7426 23.333C25.3031 24.7544 25.6495 25.3931 26.2968 25.5402C26.5882 25.6072 27.0021 25.4555 27.3112 25.3098C27.7698 25.138 28.2013 24.8878 28.5928 24.5675C29.3351 23.9529 30.0536 23.093 30.0055 21.9251C29.9877 21.3979 29.8586 20.8703 29.6863 20.3635C30.6186 19.9237 31.8285 19.6833 33.3726 19.8828C36.6788 20.3168 37.3266 22.6391 37.2025 23.6061C37.0784 24.5745 36.3828 25.1155 36.151 25.2757C35.9192 25.4359 35.8488 25.4961 35.8665 25.617C35.8956 25.7903 36.0017 25.7829 36.198 25.7422C36.4716 25.6883 37.9308 24.9551 37.9967 23.1595C38.0916 20.8917 36.1529 18.3973 32.717 18.4151H32.7121C31.5193 18.416 30.3433 18.7234 29.2731 19.3168C28.9222 18.5231 28.5595 17.8286 28.5012 17.3087C28.4303 16.7014 28.3546 16.3414 28.4369 15.622C28.5205 14.9011 28.8935 13.8787 28.8872 13.8045C28.8808 13.7316 28.8037 13.3652 28.0386 13.3579C27.2735 13.3506 26.6128 13.5247 26.5368 13.7504C26.4013 14.1655 26.2961 14.5907 26.2226 15.0247C26.0858 15.8053 24.6911 18.5958 23.9019 20.0506C23.641 19.4827 23.4218 18.9834 23.375 18.583C23.304 17.9757 23.2258 17.6157 23.3082 16.8963C23.3918 16.1754 23.7673 15.153 23.7609 15.0787C23.7546 15.0059 23.6774 14.6394 22.9123 14.6322C22.1472 14.6249 21.4854 14.799 21.4081 15.0247C21.3308 15.2519 21.2472 15.7849 21.0939 16.2989C20.9393 16.813 19.0815 21.4602 18.5951 22.6674C18.3455 23.282 18.1311 23.776 17.9766 24.1095C17.9525 24.1634 17.936 24.1971 17.9246 24.2233C17.9423 24.1898 17.9543 24.1561 17.9543 24.1692C17.8238 24.4561 17.7465 24.6158 17.7465 24.6158V24.6215C17.6451 24.8356 17.5325 25.0311 17.4793 25.0311C17.4438 25.0311 17.3661 24.4702 17.4966 23.7028C17.7753 22.0877 18.4357 19.5777 18.4293 19.4903C18.423 19.4437 18.5512 19.0094 17.9939 18.7764C17.453 18.5565 17.2602 18.9243 17.2121 18.9243C17.1639 18.9243 17.128 19.058 17.128 19.058C17.128 19.058 17.7257 16.2278 15.9751 16.2278C14.8819 16.2278 13.3614 17.5759 12.6153 18.7963C12.1466 19.0832 11.1312 19.7052 10.062 20.3664C9.65289 20.6198 9.23266 20.8797 8.83491 21.1258C8.80578 21.0923 8.78119 21.0597 8.75079 21.0262C6.62524 18.4763 2.70153 16.6736 2.86747 13.2498C2.92701 12.0018 3.31467 8.72669 10.4134 4.74807C16.2327 1.49178 20.8846 2.38476 21.6852 4.37262C22.8366 7.2095 19.1969 12.4896 13.1546 13.2498C10.8517 13.5367 9.79081 12.4181 9.48806 12.0438C9.17392 11.6506 9.12469 11.6297 9.00562 11.7025C8.80928 11.8219 8.93468 12.1698 9.00562 12.3766C9.18423 12.9038 9.97799 13.7295 11.2422 14.197C12.3531 14.6047 14.9039 14.9471 18.1695 13.5257C21.838 11.9369 24.6403 7.6209 23.803 3.91752C23.2702 1.56468 20.9034 0.201814 17.9197 0.020772ZM15.9726 17.8975C16.0654 17.9053 16.1343 17.9448 16.173 18.0198C16.3807 18.4144 15.4512 21.3195 15.213 21.9734C14.833 23.0219 14.0307 25.6929 13.543 25.5516C13.1276 25.4322 12.8712 23.3956 13.4589 21.3932C13.7553 20.3854 14.3853 19.1841 14.7603 18.7166C15.2097 18.1509 15.694 17.8738 15.9726 17.8975ZM28.3107 21.1912C28.3804 21.4242 28.417 21.669 28.4221 21.9137C28.4157 23.4166 27.4607 23.9761 26.8857 24.2091C26.7666 24.1159 26.7823 23.801 27.1801 22.8267C27.3346 22.4466 27.6926 21.8058 28.3107 21.1912ZM8.36731 22.8466C8.86007 24.8753 8.38564 26.6648 7.23419 28.0745C6.14228 29.4158 4.60981 29.9234 3.95111 29.4967C3.24428 29.035 3.52367 27.0585 4.87146 25.6284C5.69103 24.7604 6.74894 23.9604 7.44944 23.4667C7.61031 23.3604 7.83984 23.1996 8.12485 23.0059C8.17299 22.9724 8.1966 22.9604 8.1966 22.9604C8.2498 22.9211 8.30778 22.8874 8.36731 22.8466ZM23.2859 23.0799C23.2859 23.1134 23.2933 23.1486 23.2933 23.1879C23.2857 24.3821 22.2626 25.1885 21.799 25.5089H21.8039V25.5118C21.6431 25.605 21.4939 25.6636 21.4229 25.617C21.3697 25.5835 21.4897 25.4577 21.4897 25.4577C21.4897 25.4577 22.3146 24.4615 22.6402 24.0071C22.8302 23.7406 23.049 23.4265 23.2859 23.0799Z" fill="var(--primary-text)"/>
</svg>
