<svg width="32" height="32" viewBox="0 0 32 32" fill="none" xmlns="http://www.w3.org/2000/svg">
  <path
    d="M30.5 16C30.5 24.0081 24.0081 30.5 16 30.5C7.99187 30.5 1.5 24.0081 1.5 16C1.5 7.99187 7.99187 1.5 16 1.5C24.0081 1.5 30.5 7.99187 30.5 16Z"
    stroke="#254A58" stroke-width="3" />
  <path
    d="M11.7385 14.7847C15.5739 11.6512 19.3256 8.4091 23.2445 5.36755C21.1889 8.52615 19.0749 11.6428 17.0194 14.8012C15.2563 14.8097 13.4933 14.8097 11.7385 14.7845V14.7847ZM14.9806 16.5309C16.752 16.5309 18.5151 16.5309 20.2782 16.556C16.4178 19.6727 12.6828 22.9398 8.75549 25.973C10.8111 22.8144 12.925 19.6895 14.9806 16.5309Z"
    fill="#254A58" />
</svg>
