<svg width="194" height="160" viewBox="0 0 194 160" fill="none" xmlns="http://www.w3.org/2000/svg">
  <path
    d="M2 45.2083C35.5 33.2083 33.5 41.7083 70 58.2083C95.5 72.2083 116.4 52.5082 132 23.7083C141 3.70822 157 -7.29178 182.5 12.2082"
    stroke="#FFCB77" stroke-opacity="0.5" stroke-width="3" stroke-linecap="round" />
  <path
    d="M4.5 55.9165C38 43.9165 36 52.4165 72.5 68.9165C98 82.9165 118.9 63.2165 134.5 34.4165C143.5 14.4164 159.5 3.41644 185 22.9164"
    stroke="#FFCB77" stroke-opacity="0.5" stroke-width="3" stroke-linecap="round" />
  <path
    d="M8.5 66.9165C42 54.9165 40 63.4165 76.5 79.9165C102 93.9165 122.9 74.2165 138.5 45.4165C147.5 25.4164 163.5 14.4164 189 33.9164"
    stroke="#FFCB77" stroke-opacity="0.5" stroke-width="3" stroke-linecap="round" />
  <path
    d="M11.5 78.9165C45 66.9165 43 75.4165 79.5 91.9165C105 105.916 125.9 86.2165 141.5 57.4165C150.5 37.4164 166.5 26.4164 192 45.9164"
    stroke="#FFCB77" stroke-opacity="0.5" stroke-width="3" stroke-linecap="round" />
  <path
    d="M129.843 138.688L128.916 139.061L129.843 138.688L128.688 135.814C127.942 133.957 126.159 132.723 124.158 132.68L121.13 132.614C120.11 132.592 119.172 132.053 118.639 131.184L116.696 128.021C115.897 126.72 114.548 125.855 113.033 125.673L108.874 125.172C107.872 125.052 106.998 124.436 106.548 123.533L105.182 120.794C104.353 119.132 102.671 118.066 100.814 118.027L97.3589 117.953C96.4272 117.933 95.5576 117.482 95.0056 116.731L91.7453 112.297C90.8327 111.056 89.3988 110.304 87.8588 110.261L82.9273 110.121L78.564 109.472L115.802 49.6047L123.455 57.3516C124.224 58.1308 125.229 58.6356 126.313 58.7887L130.782 59.4196C131.683 59.5468 132.477 60.0756 132.941 60.8573L134.777 63.9449C135.612 65.3506 137.082 66.2589 138.714 66.377L142.041 66.6181C142.949 66.6838 143.778 67.1581 144.294 67.9075L147.044 71.8958C147.922 73.1694 149.34 73.9649 150.885 74.0502L154.189 74.2328C155.19 74.2881 156.098 74.8401 156.607 75.704L158.347 78.6536C159.167 80.0428 160.606 80.9514 162.213 81.0937L165.919 81.4217C166.805 81.5002 167.611 81.9681 168.118 82.6991L170.867 86.6576C171.738 87.9122 173.135 88.6999 174.659 88.7961L177.947 89.0037C178.953 89.0672 179.859 89.631 180.36 90.5046L181.93 93.2409C182.74 94.6511 184.184 95.5798 185.803 95.7308L189.912 96.1139L152.984 155.482L151.959 153.495C151.81 153.207 151.709 152.895 151.659 152.574L151.607 152.23C151.218 149.698 148.978 147.869 146.419 147.994L146.468 148.993L146.419 147.994L145.043 148.062C143.74 148.126 142.544 147.34 142.086 146.119L141.213 143.789C140.477 141.825 138.594 140.53 136.498 140.544L132.647 140.57C131.415 140.578 130.303 139.832 129.843 138.688Z"
    fill="#F3F6FB" stroke="#254A58" stroke-width="2" stroke-linecap="round" />
  <path
    d="M94.4896 106.589C92.6137 105.422 92.0389 102.955 93.2057 101.079L114.333 67.1138C115.5 65.238 117.966 64.6632 119.842 65.83L174.187 99.6332C176.062 100.8 176.637 103.267 175.47 105.142L154.343 139.108C153.177 140.984 150.71 141.558 148.834 140.392L94.4896 106.589Z"
    fill="#F9E0B9" />
  <path
    d="M121.483 109.282L109.474 105.55L120.437 99.4373L119.701 98.1774L105.968 105.947L121.028 110.656L121.483 109.282ZM111.61 105.323L122.998 108.863L122.214 111.193L121.352 111.284L104.73 106.079L119.888 97.507L120.75 97.4154L122.004 99.5162L111.61 105.323ZM134.167 116.932L135.781 116.76L142.937 90.8829L141.274 91.0597L134.167 116.932ZM137.06 117.127L133.48 117.508L140.869 90.5995L144.499 90.2136L137.06 117.127ZM160.856 100.088L149.9 106.261L150.634 107.509L164.367 99.739L149.307 95.0302L148.853 96.4165L160.856 100.088ZM149.205 106.077L159.618 100.219L148.211 96.7302L148.996 94.4126L149.87 94.3197L166.479 99.5145L151.335 108.097L150.461 108.19L149.205 106.077Z"
    fill="#254A58" />
</svg>
