<svg width="16" height="17" viewBox="0 0 16 17" fill="none" xmlns="http://www.w3.org/2000/svg">
  <g clip-path="url(#clip0_111_80)">
    <path
      d="M15.7565 3.44394C15.1666 3.70542 14.5407 3.87692 13.8999 3.95275C14.5752 3.5491 15.0805 2.91339 15.3212 2.16438C14.6866 2.54095 13.9923 2.80629 13.2683 2.94893C12.9659 2.62618 12.6005 2.36901 12.1946 2.1934C11.7887 2.01778 11.351 1.92746 10.9088 1.92803C8.82168 1.92803 7.28805 3.87528 7.75943 5.89671C6.47421 5.83237 5.21689 5.49846 4.0691 4.91665C2.9213 4.33484 1.90871 3.51813 1.09705 2.51956C0.683757 3.23126 0.557102 4.07367 0.742846 4.87543C0.92859 5.67719 1.41278 6.37808 2.09693 6.83553C1.58387 6.81934 1.08212 6.68068 0.633543 6.43112C0.598091 7.92864 1.6715 9.32966 3.22615 9.64151C2.74999 9.77083 2.2506 9.78969 1.76604 9.69666C1.97253 10.339 2.37466 10.9007 2.91616 11.3032C3.45767 11.7057 4.11146 11.9288 4.78604 11.9413C3.43111 13.0041 1.70978 13.4858 0 13.2806C1.47817 14.2303 3.19846 14.7345 4.95543 14.7328C10.9573 14.7328 14.3483 9.66383 14.1434 5.11742C14.7762 4.65971 15.3224 4.09305 15.7565 3.44394Z"
      fill="#254A58" />
  </g>
  <defs>
    <clipPath id="clip0_111_80">
      <rect width="15.7565" height="15.7565" fill="white" transform="translate(0 0.452175)" />
    </clipPath>
  </defs>
</svg>
