<svg width="18" height="16" viewBox="0 0 18 16" fill="none" xmlns="http://www.w3.org/2000/svg">
  <path
    d="M18 1.89418C17.326 2.2209 16.6111 2.4352 15.879 2.52994C16.6505 2.02558 17.2277 1.23123 17.5027 0.295327C16.7778 0.765864 15.9846 1.09741 15.1575 1.27564C14.8121 0.872353 14.3946 0.55102 13.9309 0.331581C13.4672 0.112143 12.9672 -0.000717732 12.462 3.4344e-06C10.0777 3.4344e-06 8.32575 2.43314 8.86425 4.95898C7.39603 4.8786 5.95969 4.46136 4.64847 3.73437C3.33725 3.00737 2.18048 1.98688 1.25325 0.739133C0.781113 1.62842 0.636424 2.68104 0.848616 3.68286C1.06081 4.68469 1.61394 5.56047 2.3955 6.13208C1.80938 6.11184 1.23619 5.93858 0.72375 5.62674C0.68325 7.49795 1.9095 9.24856 3.6855 9.63823C3.14155 9.79982 2.57104 9.82339 2.0175 9.70714C2.25338 10.5097 2.71277 11.2116 3.33138 11.7145C3.94999 12.2174 4.69687 12.4962 5.4675 12.5119C3.91965 13.8399 1.95322 14.4418 0 14.1854C1.68863 15.3721 3.65387 16.002 5.661 16C12.5175 16 16.3912 9.66612 16.1572 3.98523C16.8801 3.41331 17.504 2.70525 18 1.89418V1.89418Z"
    fill="#254A58" />
</svg>
