<svg width="51" height="55" viewBox="0 0 51 55" fill="none" xmlns="http://www.w3.org/2000/svg">
<path d="M0.987305 0.367188C6.32581 0.670401 9.92818 3.45439 13.4512 7.75391C15.2151 9.90662 16.9517 12.4296 18.874 15.2031C20.7943 17.9737 22.8971 20.9887 25.3867 24.1113C25.9365 24.8007 27.003 24.7069 27.4346 23.9434L33.1465 13.8398H50.75V47.4414C50.75 47.5059 50.7414 47.5718 50.7246 47.6328C49.7987 50.9901 47.8617 52.8405 45.7676 53.7891C43.6627 54.7424 41.3825 54.7911 39.7842 54.5088C39.475 54.4542 39.2501 54.1722 39.25 53.8291V31.0723C39.2497 29.947 37.8786 29.3948 37.0986 30.2061L26.9893 40.7207C26.7092 41.0118 26.249 41.0284 25.9482 40.7588L13.834 29.8984C13.0291 29.1774 11.7503 29.7484 11.75 30.8291V53.5898C11.75 54.0069 11.4115 54.3353 11.0107 54.3145C4.16503 53.958 0.794368 49.9457 0.263672 47.6113C0.254014 47.5688 0.250018 47.5237 0.25 47.4727V1.08984C0.25 0.6722 0.58819 0.344546 0.987305 0.367188Z" fill="var(--primary-background)" stroke="var(--primary-foreground)" stroke-width="0.5"/>
<path d="M38.6846 4.7666C41.2343 1.98152 44.9704 -0.309878 50.75 0.374023V11.8115C50.6251 11.7986 50.461 11.782 50.2637 11.7627C49.7841 11.7157 49.1077 11.6535 48.3232 11.5908C46.7556 11.4657 44.748 11.3398 43 11.3398C40.9713 11.3398 38.5894 11.4648 36.7178 11.5898C35.7815 11.6524 34.9713 11.7158 34.3955 11.7627C34.2543 11.7742 34.1271 11.7845 34.0156 11.7939C34.1842 11.5378 34.3637 11.2434 34.5508 10.9199C34.8662 10.3745 35.2068 9.75735 35.6064 9.07617C36.3999 7.72367 37.3897 6.18103 38.6846 4.7666Z" fill="var(--secondary)" stroke="var(--primary-foreground)" stroke-width="0.5"/>
</svg>
