<svg width="32" height="32" viewBox="0 0 32 32" fill="none" xmlns="http://www.w3.org/2000/svg">
  <g clip-path="url(#clip0_125_49)">
    <path
      d="M32.172 31.216L31.4946 30.5707C31.16 30.1293 30.804 29.7387 30.416 29.3827L30.4093 29.3773C30.0111 29.0156 29.5973 28.6716 29.168 28.3453C28.824 28.1089 28.3511 27.824 27.7493 27.4907C27.2546 27.268 26.868 26.8773 26.6586 26.392L26.6533 26.3787L26.5893 26.3467C26.872 26.3187 27.1306 26.2667 27.3786 26.1933L27.348 26.2013L28.108 25.992C28.4226 25.8933 28.7866 25.8293 29.164 25.8147H29.172C29.5693 25.7987 29.944 25.7347 30.3013 25.6293L30.268 25.6373C30.4404 25.5947 30.6177 25.5462 30.8 25.492C30.9822 25.4378 31.1382 25.3893 31.268 25.3467V25.1213C31.1391 24.9285 30.9831 24.708 30.8 24.46C30.6253 24.2227 30.4293 24.016 30.2093 23.836L30.2026 23.8307C29.6435 23.3365 29.0644 22.8582 28.4653 22.396C27.9373 21.984 27.3386 21.564 26.7173 21.1747L26.6266 21.1213C26.2986 20.9053 25.9226 20.7053 25.5266 20.5413L25.4813 20.5253C25.0831 20.3636 24.6906 20.1862 24.304 19.9933C24.1746 19.9293 24.024 19.8733 23.868 19.8347L23.8533 19.832C23.6973 19.8 23.564 19.72 23.4666 19.6067L23.4653 19.6053C23.2813 19.3627 23.12 19.0867 22.992 18.7933L22.9813 18.7667C22.8524 18.4653 22.7129 18.176 22.5626 17.8987C22.24 17.2747 21.928 16.6405 21.6266 15.996C21.3253 15.3516 21.036 14.7062 20.7586 14.06C20.5657 13.6298 20.3884 13.2 20.2266 12.7707C20.048 12.2987 19.8466 11.8947 19.612 11.5147L19.6293 11.5453C19.0533 10.564 18.4786 9.72668 17.8546 8.93068L17.892 8.98134C17.2746 8.20268 16.6346 7.50668 15.9466 6.86134L15.936 6.85201C15.2573 6.21468 14.5266 5.60668 13.76 5.04401L13.6946 4.99734C12.8982 4.41868 12.0271 3.8489 11.0813 3.28801C10.7013 3.06401 10.26 2.88134 9.79463 2.76401L9.75996 2.75601L8.27596 2.38534L7.4373 2.32134C7.15819 2.30001 6.87863 2.28934 6.59863 2.28934C6.4013 2.18534 6.23196 2.06134 6.08263 1.91734C5.93596 1.77734 5.7773 1.64534 5.61196 1.52401L5.59863 1.51468C4.79196 1.04401 3.85463 0.613343 2.87463 0.274676L2.7613 0.240009C2.50396 0.0893428 2.19463 0.00134277 1.8653 0.00134277C1.63063 0.00134277 1.4053 0.0466761 1.19996 0.128009L1.21196 0.124009C0.705296 0.325343 0.318629 0.734676 0.151962 1.24401L0.147962 1.25734C0.0506289 1.48668 -0.00537109 1.75201 -0.00537109 2.03201C-0.00537109 2.52268 0.167962 2.97201 0.457296 3.32268L0.454629 3.31868C0.938184 3.96312 1.30885 4.46979 1.56663 4.83868C1.75952 5.09734 1.95863 5.36623 2.16396 5.64534C2.35196 5.89601 2.51863 6.18268 2.6533 6.48534L2.66396 6.51334C2.73863 6.67201 2.80396 6.86134 2.85196 7.05601L2.85596 7.07734C2.89863 7.26045 2.95241 7.45956 3.0173 7.67468C3.21018 8.1689 3.39285 8.67556 3.5653 9.19468C3.7533 9.76134 3.9613 10.2413 4.20263 10.6987L4.1773 10.6453C4.30618 10.8818 4.43552 11.1129 4.5653 11.3387C4.69507 11.5645 4.83463 11.7849 4.98396 12C5.07063 12.1307 5.17996 12.2387 5.3053 12.3227L5.3093 12.3253C5.4413 12.4213 5.52796 12.572 5.53463 12.7427V12.744C5.38263 12.968 5.27996 13.236 5.2453 13.5253L5.24396 13.5333C5.1973 13.8707 5.13063 14.1707 5.03996 14.46L5.05063 14.42C4.7533 15.308 4.58263 16.332 4.58263 17.3947C4.58263 17.7387 4.59996 18.0773 4.63596 18.412L4.63196 18.3707C4.71196 19.648 5.0973 20.8213 5.71463 21.8373L5.69596 21.804C5.95863 22.1973 6.23996 22.54 6.55063 22.8533C6.77463 23.104 7.09996 23.2613 7.46263 23.2613C7.6653 23.2613 7.8573 23.212 8.0253 23.124L8.01863 23.1267C8.4853 22.9587 8.8173 22.532 8.8413 22.024V22.0213C8.9053 21.3893 9.0013 20.824 9.1333 20.272L9.11596 20.3613C9.14796 20.2773 9.16663 20.1813 9.16663 20.08C9.16663 20.06 9.1653 20.04 9.16396 20.02V20.0227C9.1533 19.9258 9.21241 19.8342 9.3413 19.748V19.812C9.47019 20.1133 9.60441 20.4142 9.74396 20.7147C9.88352 21.0151 10.0284 21.316 10.1786 21.6173C10.572 22.216 10.9893 22.7387 11.448 23.22L11.444 23.216C11.904 23.712 12.4053 24.1573 12.9466 24.5507L12.976 24.5707C13.2586 24.7867 13.5066 25.02 13.7306 25.2747L13.736 25.28C13.9466 25.528 14.1986 25.732 14.4826 25.8853L14.496 25.892V25.86H14.56C14.508 25.744 14.424 25.6507 14.32 25.5867L14.3173 25.5853C14.212 25.5267 14.1213 25.468 14.036 25.404L14.0426 25.408C13.8497 25.2151 13.6506 25 13.4453 24.7627C13.24 24.5253 13.052 24.2996 12.8813 24.0853C12.4297 23.4613 11.9991 22.8093 11.5893 22.1293C11.1795 21.4493 10.7924 20.7582 10.428 20.056C10.2555 19.712 10.0889 19.3573 9.92796 18.992C9.76707 18.6267 9.61107 18.272 9.45996 17.928C9.39463 17.796 9.3493 17.644 9.33196 17.4827V17.476C9.32396 17.3227 9.23596 17.1907 9.10796 17.1227L9.1053 17.1213C8.94396 17.396 8.7653 17.6333 8.5613 17.848L8.56263 17.8467C8.35063 18.0693 8.1773 18.332 8.0533 18.62L8.04663 18.6373C7.85863 19.0933 7.7213 19.6227 7.6613 20.176L7.65863 20.2013C7.59463 20.7711 7.53018 21.3569 7.4653 21.9587L7.4013 21.9907L7.3693 22.0227C7.02263 21.952 6.7373 21.7307 6.58263 21.432L6.57996 21.4253C6.41818 21.1133 6.2733 20.8067 6.1453 20.5053C5.81463 19.656 5.6093 18.6733 5.5813 17.6467V17.6347C5.5693 17.472 5.56396 17.2813 5.56396 17.0907C5.56396 16.2027 5.70396 15.3467 5.96263 14.544L5.94663 14.6027C6.01063 14.3662 6.15019 13.968 6.3653 13.408C6.58041 12.848 6.62352 12.4609 6.49463 12.2467C6.42796 12.0267 6.30396 11.8413 6.1413 11.7L6.13996 11.6987C5.9773 11.5573 5.8293 11.4093 5.6933 11.252L5.6893 11.2467C5.53907 11.0298 5.39418 10.7987 5.25463 10.5533C5.11507 10.308 4.99152 10.0662 4.88396 9.82801C4.66396 9.31868 4.43863 8.68001 4.25196 8.02401L4.22263 7.90534C4.01063 7.15201 3.77463 6.51468 3.49463 5.90134L3.5293 5.98668C3.3813 5.65068 3.2093 5.36001 3.0093 5.09468L3.0173 5.10534C2.80041 4.81556 2.60663 4.54134 2.43596 4.28268C2.21907 4.00356 2.00396 3.73468 1.79063 3.47601C1.5733 3.21334 1.37996 2.91734 1.22263 2.60001L1.21063 2.57334C1.14663 2.44401 1.09063 2.29334 1.05196 2.13734L1.0493 2.12268C1.03463 2.07601 1.02663 2.02134 1.02663 1.96668C1.02663 1.85734 1.05863 1.75468 1.11463 1.66934L1.1133 1.67201C1.12796 1.59734 1.16263 1.53201 1.21063 1.47868C1.26263 1.43201 1.3293 1.39734 1.4013 1.38268H1.40396C1.5173 1.30934 1.65463 1.26534 1.80396 1.26534C1.91596 1.26534 2.02396 1.29068 2.11863 1.33601L2.11463 1.33468C2.40663 1.41734 2.64263 1.50001 2.8733 1.59468L2.8253 1.57734C3.2333 1.74979 3.60974 1.91645 3.95463 2.07734C4.35196 2.26668 4.69063 2.46668 5.01063 2.68934L4.98663 2.67334C5.15907 2.7809 5.33107 2.89912 5.50263 3.02801C5.67418 3.1569 5.85685 3.28623 6.05063 3.41601H6.50263C6.84663 3.41601 7.21196 3.43245 7.59863 3.46534C7.9893 3.49601 8.35063 3.56934 8.69463 3.68401L8.66263 3.67468C9.30396 3.86534 9.85463 4.09068 10.3773 4.36134L10.3226 4.33601C10.8497 4.60445 11.3497 4.88934 11.8226 5.19068C12.608 5.68001 13.2866 6.18134 13.9253 6.72934L13.9026 6.71068C14.5693 7.28134 15.1746 7.86668 15.7426 8.48534L15.756 8.50134C16.3106 9.10668 16.84 9.76401 17.324 10.4533L17.3653 10.516C17.8106 11.1453 18.26 11.8733 18.664 12.628L18.72 12.7413C18.828 12.9467 18.9373 13.1987 19.032 13.456L19.0466 13.5C19.1329 13.7471 19.2293 14.0005 19.336 14.26C19.5724 14.7978 19.8257 15.3405 20.096 15.888C20.3662 16.4356 20.6195 16.968 20.856 17.4853L21.5653 19.0333C21.8146 19.5747 22.0933 20.0413 22.4173 20.472L22.4026 20.452C22.6733 20.7413 23.0346 20.944 23.44 21.0147L23.4506 21.016C23.9413 21.1387 24.3546 21.2773 24.7546 21.4413L24.692 21.4187C24.8826 21.5053 25.128 21.5973 25.38 21.6787L25.4333 21.6933C25.716 21.78 25.9613 21.8947 26.1866 22.0387L26.1746 22.032C26.6106 22.276 26.98 22.516 27.332 22.7773L27.304 22.7573C27.6693 23.0258 28.0346 23.2791 28.4 23.5173C28.5724 23.6462 28.8617 23.8342 29.268 24.0813C29.6742 24.3285 29.8893 24.5596 29.9133 24.7747C29.7613 24.7693 29.5813 24.7653 29.4013 24.7653C28.7453 24.7653 28.1 24.808 27.468 24.8907L27.5426 24.8827C26.828 24.9787 26.18 25.1533 25.5706 25.4027L25.624 25.384C25.4733 25.4493 25.2933 25.5093 25.1066 25.556L25.0813 25.5613C24.892 25.5893 24.7453 25.7413 24.7266 25.9307V25.932C24.808 26.0333 24.8733 26.1507 24.9173 26.2787L24.92 26.2867C24.9653 26.4227 25.02 26.54 25.0866 26.6493L25.0826 26.6413C25.2413 26.9227 25.412 27.1653 25.604 27.3893L25.5986 27.3827C25.7866 27.6147 25.9986 27.816 26.2333 27.988L26.2426 27.9947C26.4595 28.1671 26.6853 28.3445 26.92 28.5267C27.1346 28.6947 27.3773 28.86 27.6293 29.0093L27.6613 29.0267C28.04 29.2587 28.48 29.48 28.9386 29.6653L29 29.6867C29.4986 29.8867 29.9266 30.1187 30.324 30.3947L30.3026 30.38C30.5613 30.5302 30.8191 30.6969 31.076 30.88C31.3329 31.0631 31.58 31.2405 31.8173 31.412C31.9146 31.508 32 31.6147 32.072 31.7307L32.076 31.7373C32.1973 31.876 32.3653 31.9707 32.556 31.9947H32.56V31.9307C32.4426 31.8413 32.356 31.7173 32.3146 31.5747L32.3133 31.5693C32.28 31.4333 32.2306 31.3147 32.164 31.2053L32.1666 31.2107L32.172 31.216ZM7.40396 5.60934C7.23152 5.60934 7.07018 5.61468 6.91996 5.62534C6.76663 5.63601 6.62396 5.66401 6.4893 5.70934L6.5013 5.70534V5.73734H6.5653C6.65152 5.86623 6.75996 6.01112 6.89063 6.17201C7.0213 6.3329 7.13952 6.4889 7.2453 6.64001L7.7613 7.70401L7.8253 7.67201C7.97596 7.56268 8.09196 7.41601 8.1613 7.24401L8.16396 7.23734C8.2333 7.05201 8.2733 6.83601 8.2733 6.61201C8.2733 6.58801 8.2733 6.56401 8.27196 6.54001V6.54401C8.21196 6.48534 8.16263 6.41601 8.12796 6.33868L8.12663 6.33468L8.01863 6.09201C7.94796 5.98001 7.8493 5.89201 7.7333 5.83601L7.7293 5.83468C7.60396 5.77468 7.4973 5.69868 7.40396 5.60934V5.60934Z"
      fill="var(--color-primary)" stroke="var(--color-primary)" />
  </g>
</svg>