<svg width="32" height="32" viewBox="0 0 32 32" fill="none" xmlns="http://www.w3.org/2000/svg">
  <path
    d="M29.2694 24.6667L16.3174 32V26.2853L24.3814 21.84L29.2694 24.6667ZM30.1574 23.8733V8.51333L25.4267 11.2747V21.116L30.1574 23.8467V23.8733ZM2.22137 24.6667L15.1734 32V26.2853L7.10937 21.84L2.22137 24.6667ZM1.33337 23.8733V8.51333L6.06404 11.2747V21.116L1.33337 23.8733ZM1.87337 7.524L15.1747 0V5.524L6.60271 10.2547L1.87337 7.524ZM29.6187 7.524L16.3174 0V5.524L24.888 10.2547L29.6187 7.524ZM15.1747 24.984L7.21204 20.6013V11.9027L15.18 16.5053L15.1747 24.984ZM16.3174 24.984L24.2854 20.6027V11.904L16.3174 16.5067V24.984ZM7.74537 10.92L15.7454 6.50667L23.7454 10.92L15.7454 15.524L7.74537 10.92Z"
    fill="var(--color-primary)" />
</svg>